<svg version="1.0" xmlns="http://www.w3.org/2000/svg"
 width="300.000000pt" height="300.000000pt" viewBox="0 0 300.000000 300.000000"
 preserveAspectRatio="xMidYMid meet">
<metadata>
Created by potrace 1.10, written by Peter Selinger 2001-2011
</metadata>
<g transform="translate(0.000000,300.000000) scale(0.100000,-0.100000)"
fill="#000000" stroke="none">
<path d="M0 1500 l0 -1500 1500 0 1500 0 0 1500 0 1500 -1500 0 -1500 0 0
-1500z m2115 954 c68 -44 74 -126 17 -211 -97 -145 -174 -331 -188 -458 -8
-73 -33 -118 -76 -136 -67 -28 -131 -8 -168 54 -25 40 -25 78 0 197 30 143 27
182 -14 227 -30 33 -39 37 -93 41 -50 3 -68 0 -114 -23 -102 -52 -243 -222
-332 -400 -183 -370 -163 -831 43 -944 37 -21 55 -24 129 -23 217 4 425 106
593 294 158 176 152 171 205 165 38 -4 54 -12 81 -42 51 -55 43 -96 -39 -216
-205 -300 -464 -466 -777 -498 -340 -35 -558 109 -637 423 -70 277 -19 655
129 972 109 230 272 413 440 494 148 70 298 77 464 21 51 -17 99 -31 106 -31
7 0 26 19 42 42 50 71 127 93 189 52z"/>
</g>
</svg>
